<?xml version="1.0" encoding="UTF-8"?>
<svg id="Layer_1" data-name="Layer 1" xmlns="http://www.w3.org/2000/svg" viewBox="0 0 431.03 214.94">
  <defs>
    <style>
      .cls-1 {
        font-family: ApexNew-BoldItalic, 'Apex New';
        font-size: 13.06px;
        font-style: italic;
        font-weight: 700;
      }

      .cls-1, .cls-2 {
        fill: #231f20;
      }

      .cls-3 {
        fill: #1a73e8;
      }
    </style>
  </defs>
  <g>
    <g>
      <path class="cls-2" d="m218.67,106.91c0,1.34-.25,2.61-.75,3.79-.52,1.18-1.22,2.21-2.09,3.1-.88.88-1.9,1.58-3.07,2.09-1.19.51-2.44.76-3.77.76h-26.35c-1.33,0-2.58-.25-3.75-.76-1.17-.51-2.19-1.21-3.07-2.09-.88-.89-1.57-1.92-2.07-3.1-.5-1.18-.75-2.44-.75-3.79v-17.36c0-1.34.25-2.62.75-3.81.5-1.18,1.19-2.21,2.07-3.1.88-.89,1.9-1.59,3.07-2.11,1.17-.51,2.42-.76,3.75-.76h26.35c1.33,0,2.59.26,3.77.76,1.17.52,2.19,1.23,3.07,2.11.88.89,1.58,1.92,2.09,3.1.5,1.2.75,2.47.75,3.81v17.36Zm-7.75-17.36c0-.54-.19-1.01-.56-1.4-.39-.38-.85-.56-1.39-.56h-26.35c-.52,0-.97.19-1.34.56-.37.39-.56.86-.56,1.4v17.36c0,.54.19,1,.56,1.38.37.4.82.59,1.34.59h26.35c.53,0,1-.2,1.39-.59.37-.38.56-.84.56-1.38v-17.36Z"/>
      <path class="cls-2" d="m279.95,116.65h-16.71l-37.27-19.92v-2.41h35.51c.49,0,.92-.18,1.29-.54.37-.36.56-.8.56-1.33v-3c0-.52-.19-.97-.56-1.33-.37-.36-.8-.54-1.29-.54h-35.51v-7.82h35.51c1.31,0,2.56.26,3.73.76,1.15.51,2.17,1.21,3.04,2.09.88.89,1.57,1.91,2.07,3.07.5,1.18.75,2.44.75,3.76v3c0,1.33-.25,2.58-.75,3.74-.5,1.18-1.19,2.21-2.07,3.1-.88.88-1.89,1.58-3.04,2.09-1.17.51-2.41.76-3.73.76h-9.21l27.67,14.51Z"/>
      <path class="cls-2" d="m331.05,106.71c0,1.36-.26,2.64-.78,3.84-.52,1.21-1.22,2.27-2.12,3.17-.91.9-1.96,1.62-3.17,2.14-1.2.52-2.47.79-3.82.79h-35.81v-22.33h35.81c.29,0,.57-.06.83-.17.26-.11.49-.27.68-.47s.35-.43.46-.69.17-.54.17-.84v-2.41c0-.29-.06-.57-.17-.84s-.27-.49-.46-.69-.42-.35-.68-.47c-.26-.11-.53-.17-.83-.17h-35.81v-7.82h35.81c1.35,0,2.62.26,3.82.79,1.2.53,2.26,1.24,3.17,2.14.89.92,1.6,1.98,2.12,3.2.52,1.21.78,2.5.78,3.86v2.41c0,1.17-.18,2.25-.53,3.27-.37,1.02-.88,1.94-1.51,2.78.63.84,1.14,1.77,1.51,2.8.36,1.03.53,2.11.53,3.25v2.46Zm-7.74-2.46c0-.28-.06-.55-.17-.81-.11-.25-.27-.47-.46-.66s-.42-.35-.68-.47c-.26-.11-.53-.17-.83-.17h-28.06v6.74h28.06c.29,0,.57-.06.83-.17.26-.11.49-.27.68-.47s.35-.43.46-.69.17-.54.17-.84v-2.46Z"/>
      <path class="cls-2" d="m346.1,116.65h-7.74v-36.89h7.74v36.89Z"/>
      <path class="cls-2" d="m399.06,87.58h-45.65v-7.82h45.65v7.82Zm-18.95,29.07h-7.75v-22.33h7.75v22.33Z"/>
    </g>
    <text class="cls-1" transform="translate(228.32 133.43)"><tspan x="0" y="0">Specielity Eye Center</tspan></text>
  </g>
  <path class="cls-3" d="m103.38,37.15c-14.89,14.34-25.71,29.62-32.47,45.84-6.75,16.22-10.13,31.87-10.13,46.93,0,9.65,1.9,17.26,5.69,22.85,3.8,5.58,8.93,8.38,15.41,8.38,12.96,0,26.45-11.45,40.49-34.35,14.04-22.9,21.06-44.12,21.06-63.69,0-5.81-.93-10.44-2.79-13.88-1.86-3.43-4.32-5.15-7.39-5.15-5.68,0-10.95,4.33-15.81,12.98-4.86,8.66-7.29,16.36-7.29,23.1,0,4.82,2.22,7.53,6.67,8.13,1.83.2,2.75,1.09,2.75,2.68,0,2.91-1.48,5.77-4.43,8.57s-6.04,4.21-9.26,4.21c-3.94,0-7.24-1.8-9.9-5.4-2.66-3.6-3.99-8.11-3.99-13.53,0-11.43,4.27-22.5,12.81-33.21,8.54-10.71,17.26-16.06,26.16-16.06,6.09,0,10.9,2.43,14.43,7.29,3.54,4.86,5.3,11.55,5.3,20.07,0,16.45-4.51,33.97-13.54,52.53-9.03,18.57-20.32,33.82-33.87,45.75-13.55,11.93-26.31,17.89-38.28,17.89-9.29,0-16.96-3.96-23.02-11.89-6.05-7.93-9.08-18.14-9.08-30.63,0-13.28,2.64-26.73,7.91-40.34,5.28-13.61,12.14-25.75,20.59-36.43s15.17-17.38,20.15-20.12c4.98-2.74,12.25-4.11,21.82-4.11v1.59Z"/>
</svg>