<?xml version="1.0" encoding="UTF-8"?>
<svg id="Layer_1" data-name="Layer 1" xmlns="http://www.w3.org/2000/svg" viewBox="0 0 414.09 328.6">
  <defs>
    <style>
      .cls-1 {
        fill: #1a73e8;
        font-family: ScriptMTBold, 'Script MT Bold';
        font-size: 222.13px;
        letter-spacing: -.04em;
      }

      .cls-2 {
        font-family: ApexNew-BoldItalic, 'Apex New';
        font-size: 13.35px;
        font-style: italic;
        font-weight: 700;
      }

      .cls-2, .cls-3 {
        fill: #231f20;
      }
    </style>
  </defs>
  <g>
    <path class="cls-3" d="m137.75,276.55c0,1.47-.28,2.85-.83,4.14-.57,1.29-1.33,2.42-2.29,3.39-.96.97-2.08,1.73-3.36,2.29-1.3.56-2.67.84-4.13.84h-28.84c-1.46,0-2.83-.28-4.11-.84-1.28-.56-2.4-1.32-3.36-2.29-.96-.97-1.71-2.1-2.27-3.39-.55-1.29-.83-2.67-.83-4.14v-19c0-1.47.28-2.86.83-4.17.55-1.29,1.31-2.42,2.27-3.39.96-.97,2.08-1.74,3.36-2.31,1.28-.56,2.65-.84,4.11-.84h28.84c1.46,0,2.83.28,4.13.84,1.28.57,2.4,1.34,3.36,2.31.96.97,1.72,2.1,2.29,3.39.55,1.31.83,2.7.83,4.17v19Zm-8.47-19c0-.59-.2-1.1-.61-1.53-.43-.41-.93-.62-1.52-.62h-28.84c-.57,0-1.06.21-1.47.62-.41.43-.61.94-.61,1.53v19c0,.59.2,1.09.61,1.51.41.43.9.65,1.47.65h28.84c.58,0,1.09-.22,1.52-.65.41-.41.61-.91.61-1.51v-19Z"/>
    <path class="cls-3" d="m204.8,287.21h-18.28l-40.78-21.8v-2.64h38.86c.53,0,1-.2,1.41-.59.41-.4.61-.88.61-1.46v-3.28c0-.57-.2-1.06-.61-1.45-.41-.4-.88-.59-1.41-.59h-38.86v-8.56h38.86c1.44,0,2.8.28,4.08.84,1.26.56,2.37,1.32,3.33,2.29.96.97,1.71,2.09,2.26,3.36.55,1.29.83,2.67.83,4.12v3.28c0,1.46-.28,2.82-.83,4.09-.55,1.29-1.31,2.42-2.26,3.39-.96.97-2.07,1.73-3.33,2.29-1.28.56-2.64.84-4.08.84h-10.08l30.28,15.88Z"/>
    <path class="cls-3" d="m260.72,276.33c0,1.49-.28,2.89-.85,4.2-.57,1.33-1.34,2.49-2.32,3.47-.99.99-2.15,1.77-3.47,2.34-1.31.57-2.71.86-4.18.86h-39.18v-24.44h39.18c.32,0,.62-.06.91-.19.29-.13.53-.3.75-.51s.38-.47.51-.75.19-.59.19-.91v-2.64c0-.32-.06-.63-.19-.91s-.29-.54-.51-.75-.46-.39-.75-.51c-.28-.13-.58-.19-.91-.19h-39.18v-8.56h39.18c1.48,0,2.87.29,4.18.86,1.32.58,2.47,1.36,3.47,2.34.98,1.01,1.75,2.17,2.32,3.5.57,1.33.85,2.74.85,4.23v2.64c0,1.27-.19,2.47-.58,3.58-.41,1.11-.96,2.13-1.65,3.04.69.91,1.24,1.94,1.65,3.07.39,1.13.58,2.31.58,3.55v2.69Zm-8.47-2.69c0-.31-.06-.6-.19-.89-.13-.27-.29-.51-.51-.73s-.46-.38-.75-.51c-.28-.13-.58-.19-.91-.19h-30.7v7.37h30.7c.32,0,.62-.06.91-.19.29-.13.53-.3.75-.51s.38-.47.51-.75.19-.59.19-.92v-2.69Z"/>
    <path class="cls-3" d="m277.19,287.21h-8.47v-40.37h8.47v40.37Z"/>
    <path class="cls-3" d="m335.13,255.39h-49.95v-8.56h49.95v8.56Zm-20.74,31.81h-8.48v-24.44h8.48v24.44Z"/>
  </g>
  <text class="cls-2" transform="translate(148.3 304.86)"><tspan x="0" y="0">Specielity Eye Center</tspan></text>
  <text class="cls-1" transform="translate(143.12 210.8)"><tspan x="0" y="0">O</tspan></text>
</svg>